<svg fill="none" xmlns="http://www.w3.org/2000/svg" viewBox="8.37 3 453.12 376.55"><g clip-path="url(#clip0_1_97)"><path d="M175.631 379.538C163.978 379.538 154.731 377.448 147.891 373.268C141.178 368.961 136.428 363.008 133.641 355.408C130.855 347.681 129.461 338.624 129.461 328.238V272.758C129.461 262.118 130.855 252.998 133.641 245.398C136.428 237.671 141.178 231.718 147.891 227.538C154.731 223.358 163.978 221.268 175.631 221.268C187.031 221.268 195.898 223.168 202.231 226.968C208.691 230.641 213.251 235.834 215.911 242.548C218.571 249.261 219.901 256.988 219.901 265.728V279.028H186.651V263.638C186.651 260.598 186.461 257.684 186.081 254.898C185.828 252.111 184.941 249.831 183.421 248.058C181.901 246.158 179.305 245.208 175.631 245.208C172.085 245.208 169.425 246.158 167.651 248.058C166.005 249.958 164.928 252.364 164.421 255.278C164.041 258.064 163.851 261.041 163.851 264.208V336.598C163.851 340.018 164.105 343.184 164.611 346.098C165.245 348.884 166.385 351.164 168.031 352.938C169.805 354.584 172.338 355.408 175.631 355.408C179.178 355.408 181.711 354.521 183.231 352.748C184.751 350.848 185.701 348.441 186.081 345.528C186.461 342.614 186.651 339.638 186.651 336.598V320.448H219.901V333.748C219.901 342.488 218.571 350.341 215.911 357.308C213.378 364.148 208.881 369.594 202.421 373.648C196.088 377.574 187.158 379.538 175.631 379.538ZM282.692 379.538C271.165 379.538 262.045 377.511 255.332 373.458C248.618 369.404 243.805 363.578 240.892 355.978C237.978 348.378 236.522 339.321 236.522 328.808V271.618C236.522 260.978 237.978 251.921 240.892 244.448C243.805 236.974 248.618 231.274 255.332 227.348C262.045 223.294 271.165 221.268 282.692 221.268C294.345 221.268 303.528 223.294 310.242 227.348C317.082 231.274 321.958 236.974 324.872 244.448C327.785 251.921 329.242 260.978 329.242 271.618V328.808C329.242 339.321 327.785 348.378 324.872 355.978C321.958 363.578 317.082 369.404 310.242 373.458C303.528 377.511 294.345 379.538 282.692 379.538ZM282.692 355.408C286.238 355.408 288.835 354.521 290.482 352.748C292.128 350.974 293.205 348.694 293.712 345.908C294.218 343.121 294.472 340.271 294.472 337.358V263.258C294.472 260.218 294.218 257.368 293.712 254.708C293.205 251.921 292.128 249.641 290.482 247.868C288.835 246.094 286.238 245.208 282.692 245.208C279.398 245.208 276.928 246.094 275.282 247.868C273.635 249.641 272.558 251.921 272.052 254.708C271.545 257.368 271.292 260.218 271.292 263.258V337.358C271.292 340.271 271.482 343.121 271.862 345.908C272.368 348.694 273.382 350.974 274.902 352.748C276.548 354.521 279.145 355.408 282.692 355.408ZM349.37 377.258L352.03 223.358H388.51L405.42 312.848L423.66 223.358H458.81L461.47 377.258H437.34L434.49 274.848L416.63 377.258H395.16L376.16 274.088L373.88 377.258H349.37Z" fill="white" style="fill:white;fill-opacity:1;"></path><rect x="8.38889" y="317.377" width="104.792" height="59.8812" fill="#FF0000" style="fill:#FF0000;fill:color(display-p3 1.0000 0.0000 0.0000);fill-opacity:1;"></rect><rect x="8.38889" y="3" width="104.792" height="59.8812" fill="#000695" style="fill:#000695;fill:color(display-p3 0.0000 0.0234 0.5849);fill-opacity:1;"></rect><rect x="8.38889" y="272.466" width="104.792" height="44.9109" fill="#FFA800" style="fill:#FFA800;fill:color(display-p3 1.0000 0.6600 0.0000);fill-opacity:1;"></rect><rect x="8.38889" y="212.584" width="104.792" height="59.8812" fill="#FFF500" style="fill:#FFF500;fill:color(display-p3 1.0000 0.9600 0.0000);fill-opacity:1;"></rect><rect x="8.38889" y="167.673" width="104.792" height="44.9109" fill="#D9D9D9" style="fill:#D9D9D9;fill:color(display-p3 0.8510 0.8510 0.8510);fill-opacity:1;"></rect><rect x="8.38889" y="167.673" width="104.792" height="44.9109" fill="#52FF00" style="fill:#52FF00;fill:color(display-p3 0.3200 1.0000 0.0000);fill-opacity:1;"></rect><rect x="8.38889" y="107.792" width="104.792" height="59.8812" fill="#00B3FF" style="fill:#00B3FF;fill:color(display-p3 0.0000 0.7000 1.0000);fill-opacity:1;"></rect><rect x="8.38889" y="62.8812" width="104.792" height="44.9109" fill="#0057FF" style="fill:#0057FF;fill:color(display-p3 0.0000 0.3400 1.0000);fill-opacity:1;"></rect></g><defs><clipPath id="clip0_1_97"><rect width="489" height="434" fill="white" style="fill:white;fill-opacity:1;" transform="translate(0.5)"></rect></clipPath></defs></svg>